<svg xmlns:xlink="http://www.w3.org/1999/xlink" xmlns="http://www.w3.org/2000/svg" width="1116pt" height="183pt" viewBox="0.00 0.00 1116.00 183.00">
<g id="graph0" class="graph" transform="scale(1 1) rotate(0) translate(4 179)">
<title>d1e114</title>
<polygon style="fill:white;stroke:white;" points="-4,4 -4,-179 1112,-179 1112,4 -4,4"/>
<!-- A1 -->
<g id="node1" class="node">
            <title>A1</title>
<polygon style="fill:none;stroke:black;" points="618,-174 516,-174 516,-140 618,-140 618,-174"/>
<text text-anchor="middle" x="567" y="-161" style="font-family:Times New Roman;font-size:10.00px;">crm:E57_Material:</text>
<text text-anchor="middle" x="567" y="-148" style="font-family:Times New Roman;font-size:10.00px;"> </text>
</g>
<!-- &quot;Stein&quot; -->
<g id="node3" class="node">
            <title>"Stein"</title>
<text text-anchor="middle" x="959" y="-154.5" style="font-family:Times New Roman;font-size:10.00px;">"Stein"</text>
</g>
<!-- A1&#45;&gt;&quot;Stein&quot; -->
<g id="edge2" class="edge">
            <title>A1-&gt;"Stein"</title>
<path style="fill:none;stroke:blue;" d="M618,-157C699,-157 851,-157 922,-157"/>
<polygon style="fill:blue;stroke:blue;" points="922,-160.5 932,-157 922,-153.5 922,-160.5"/>
<text text-anchor="middle" x="757" y="-160.5" style="font-family:Times New Roman;font-size:10.00px;">crm:P3_has_note</text>
</g>
<!-- http://www.steinheim&#45;institut.de/cgi&#45;bin/epidat?id=aha&#45;13 -->
<g id="node4" class="node">
            <title>http://www.steinheim-institut.de/cgi-bin/epidat?id=aha-13</title>
<a xlink:href="http://www.steinheim-institut.de/cgi-bin/epidat?id=aha-13" xlink:title="crm:E19_Physical_Object:\nhttp://www.steinheim-institut.de/cgi-bin/epidat?id=aha-13">
<polygon style="fill:none;stroke:black;" points="289,-117 1,-117 1,-83 289,-83 289,-117"/>
<text text-anchor="middle" x="145" y="-104" style="font-family:Times New Roman;font-size:10.00px;fill:blue;">crm:E19_Physical_Object:</text>
<text text-anchor="middle" x="145" y="-91" style="font-family:Times New Roman;font-size:10.00px;fill:blue;">http://www.steinheim-institut.de/cgi-bin/epidat?id=aha-13</text>
</a>
</g>
<!-- http://www.steinheim&#45;institut.de/cgi&#45;bin/epidat?id=aha&#45;13&#45;&gt;A1 -->
<g id="edge6" class="edge">
            <title>http://www.steinheim-institut.de/cgi-bin/epidat?id=aha-13-&gt;A1</title>
<path style="fill:none;stroke:blue;" d="M271,-117C349,-127 444,-141 506,-149"/>
<polygon style="fill:blue;stroke:blue;" points="505.701,-152.488 516,-150 506.398,-145.522 505.701,-152.488"/>
<text text-anchor="middle" x="360" y="-137.5" style="font-family:Times New Roman;font-size:10.00px;">crm:P9_consists_of</text>
</g>
<!-- &quot;Breite, hochrechteckige Sandsteinstele mit geradem\nAbschluss. Das ver [...]&quot; -->
<g id="node6" class="node">
            <title>"Breite, hochrechteckige Sandsteinstele mit geradem\nAbschluss. Das ver [...]"</title>
<text text-anchor="middle" x="567" y="-104" style="font-family:Times New Roman;font-size:10.00px;">"Breite, hochrechteckige Sandsteinstele mit geradem</text>
<text text-anchor="middle" x="567" y="-91" style="font-family:Times New Roman;font-size:10.00px;">Abschluss. Das ver [...]"</text>
</g>
<!-- http://www.steinheim&#45;institut.de/cgi&#45;bin/epidat?id=aha&#45;13&#45;&gt;&quot;Breite, hochrechteckige Sandsteinstele mit geradem\nAbschluss. Das ver [...]&quot; -->
<g id="edge4" class="edge">
            <title>http://www.steinheim-institut.de/cgi-bin/epidat?id=aha-13-&gt;"Breite, hochrechteckige Sandsteinstele mit geradem\nAbschluss. Das ver [...]"</title>
<path style="fill:none;stroke:blue;" d="M290,-100C332,-100 378,-100 420,-100"/>
<polygon style="fill:blue;stroke:blue;" points="420,-103.5 430,-100 420,-96.5001 420,-103.5"/>
<text text-anchor="middle" x="360" y="-103.5" style="font-family:Times New Roman;font-size:10.00px;">crm:P3_has_note</text>
</g>
<!-- A0 -->
<g id="node9" class="node">
            <title>A0</title>
<polygon style="fill:none;stroke:black;" points="610,-60 524,-60 524,-26 610,-26 610,-60"/>
<text text-anchor="middle" x="567" y="-47" style="font-family:Times New Roman;font-size:10.00px;">crm:E50_Date:</text>
<text text-anchor="middle" x="567" y="-34" style="font-family:Times New Roman;font-size:10.00px;"> </text>
</g>
<!-- http://www.steinheim&#45;institut.de/cgi&#45;bin/epidat?id=aha&#45;13&#45;&gt;A0 -->
<g id="edge8" class="edge">
            <title>http://www.steinheim-institut.de/cgi-bin/epidat?id=aha-13-&gt;A0</title>
<path style="fill:none;stroke:blue;" d="M271,-83C351,-72 452,-59 513,-50"/>
<polygon style="fill:blue;stroke:blue;" points="513.398,-53.4778 523,-49 512.701,-46.5125 513.398,-53.4778"/>
<text text-anchor="middle" x="360" y="-80.5" style="font-family:Times New Roman;font-size:10.00px;">crm:P78_is_identified_by</text>
</g>
<!-- &quot;1879&#45;12&#45;08&quot; -->
<g id="node11" class="node">
            <title>"1879-12-08"</title>
<text text-anchor="middle" x="959" y="-40.5" style="font-family:Times New Roman;font-size:10.00px;">"1879-12-08"^^http://www.w3.org/2001/XMLSchema#date</text>
</g>
<!-- A0&#45;&gt;&quot;1879&#45;12&#45;08&quot; -->
<g id="edge10" class="edge">
            <title>A0-&gt;"1879-12-08"</title>
<path style="fill:none;stroke:blue;" d="M611,-43C657,-43 732,-43 800,-43"/>
<polygon style="fill:blue;stroke:blue;" points="800,-46.5001 810,-43 800,-39.5001 800,-46.5001"/>
<text text-anchor="middle" x="757" y="-46.5" style="font-family:Times New Roman;font-size:10.00px;">crm:P3_has_note</text>
</g>
</g>
</svg>