<svg xmlns:xlink="http://www.w3.org/1999/xlink" xmlns="http://www.w3.org/2000/svg" width="1866pt" height="711pt" viewBox="0.00 0.00 1866.00 711.00">
<g id="graph0" class="graph" transform="scale(1 1) rotate(0) translate(4 707)">
<title>d1e247</title>
<polygon style="fill:white;stroke:white;" points="-4,4 -4,-707 1862,-707 1862,4 -4,4"/>
<!-- A8 -->
<g id="node1" class="node">
            <title>A8</title>
<polygon style="fill:none;stroke:black;" points="818,-668 732,-668 732,-634 818,-634 818,-668"/>
<text text-anchor="middle" x="775" y="-655" style="font-family:Times New Roman;font-size:10.00px;">crm:E50_Date:</text>
<text text-anchor="middle" x="775" y="-642" style="font-family:Times New Roman;font-size:10.00px;"> </text>
</g>
<!-- &quot;1879&#45;12&#45;08&quot; -->
<g id="node3" class="node">
            <title>"1879-12-08"</title>
<text text-anchor="middle" x="1709" y="-611.5" style="font-family:Times New Roman;font-size:10.00px;">"1879-12-08"^^http://www.w3.org/2001/XMLSchema#date</text>
</g>
<!-- A8&#45;&gt;&quot;1879&#45;12&#45;08&quot; -->
<g id="edge2" class="edge">
            <title>A8-&gt;"1879-12-08"</title>
<path style="fill:none;stroke:blue;" d="M819,-661C828,-662 837,-664 846,-665 1115,-694 1186,-703 1454,-673 1518,-666 1588,-648 1638,-635"/>
<polygon style="fill:blue;stroke:blue;" points="1639.43,-638.226 1648,-632 1637.42,-631.521 1639.43,-638.226"/>
<text text-anchor="middle" x="1128" y="-694.5" style="font-family:Times New Roman;font-size:10.00px;">crm:P3_has_note</text>
</g>
<!-- A4 -->
<g id="node4" class="node">
            <title>A4</title>
<polygon style="fill:none;stroke:black;" points="623,-482 511,-482 511,-448 623,-448 623,-482"/>
<text text-anchor="middle" x="567" y="-469" style="font-family:Times New Roman;font-size:10.00px;">crm:E34_Inscription:</text>
<text text-anchor="middle" x="567" y="-456" style="font-family:Times New Roman;font-size:10.00px;"> </text>
</g>
<!-- &quot;‎‏הנאהבים והנעימים בחייהם ובמותם לא נפרדו‏‎ \n ‎‏עוברי בעמק הבכא ראו‏‎ ‎‏פה //\nופה‏‎ ‎‏אמלל פרח לא צץ ציץ // יפה נוף\nהדר הורו‏‎ ‎‏ידיד אבות ענף יפה // וחדות\nאמו דרך כל‏‎ ‎‏זנח עולמו רך בשנים //\nהארץ הלך אחר אחיו‏‎ ‎‏ה״ה אליעזר בן כ׳\nיוסף // ולמחרתו יום ג׳ כ״ד כסלו‏‎ \n‎‏הכהן נקטף בעודו // בא המות שנית בחלוני‏‎ \n ‎‏באבו לדאבון אבותיו // אבותיו המדכאים ויאמר‏‎ \n ‎‏ביום ב׳ כ״ג כסלו תר״מ לפ״ק // גם אחיו\nיהודה יעלה‏‎ ‎‏תנצב״ה‏‎&quot; -->
<g id="node6" class="node">
            <title>"‎‏הנאהבים והנעימים בחייהם ובמותם לא נפרדו‏‎ \n ‎‏עוברי בעמק הבכא ראו‏‎ ‎‏פה //\nופה‏‎ ‎‏אמלל פרח לא צץ ציץ // יפה נוף\nהדר הורו‏‎ ‎‏ידיד אבות ענף יפה // וחדות\nאמו דרך כל‏‎ ‎‏זנח עולמו רך בשנים //\nהארץ הלך אחר אחיו‏‎ ‎‏ה״ה אליעזר בן כ׳\nיוסף // ולמחרתו יום ג׳ כ״ד כסלו‏‎ \n‎‏הכהן נקטף בעודו // בא המות שנית בחלוני‏‎ \n ‎‏באבו לדאבון אבותיו // אבותיו המדכאים ויאמר‏‎ \n ‎‏ביום ב׳ כ״ג כסלו תר״מ לפ״ק // גם אחיו\nיהודה יעלה‏‎ ‎‏תנצב״ה‏‎"</title>
<text text-anchor="middle" x="952" y="-641.5" style="font-family:Times New Roman;font-size:10.00px;">"‎‏הנאהבים והנעימים בחייהם ובמותם לא נפרדו‏‎ </text>
<text text-anchor="middle" x="952" y="-628.5" style="font-family:Times New Roman;font-size:10.00px;"> ‎‏עוברי בעמק הבכא ראו‏‎ ‎‏פה //</text>
<text text-anchor="middle" x="952" y="-615.5" style="font-family:Times New Roman;font-size:10.00px;">ופה‏‎ ‎‏אמלל פרח לא צץ ציץ // יפה נוף</text>
<text text-anchor="middle" x="952" y="-602.5" style="font-family:Times New Roman;font-size:10.00px;">הדר הורו‏‎ ‎‏ידיד אבות ענף יפה // וחדות</text>
<text text-anchor="middle" x="952" y="-589.5" style="font-family:Times New Roman;font-size:10.00px;">אמו דרך כל‏‎ ‎‏זנח עולמו רך בשנים //</text>
<text text-anchor="middle" x="952" y="-576.5" style="font-family:Times New Roman;font-size:10.00px;">הארץ הלך אחר אחיו‏‎ ‎‏ה״ה אליעזר בן כ׳</text>
<text text-anchor="middle" x="952" y="-563.5" style="font-family:Times New Roman;font-size:10.00px;">יוסף // ולמחרתו יום ג׳ כ״ד כסלו‏‎ </text>
<text text-anchor="middle" x="952" y="-550.5" style="font-family:Times New Roman;font-size:10.00px;">‎‏הכהן נקטף בעודו // בא המות שנית בחלוני‏‎ </text>
<text text-anchor="middle" x="952" y="-537.5" style="font-family:Times New Roman;font-size:10.00px;"> ‎‏באבו לדאבון אבותיו // אבותיו המדכאים ויאמר‏‎ </text>
<text text-anchor="middle" x="952" y="-524.5" style="font-family:Times New Roman;font-size:10.00px;"> ‎‏ביום ב׳ כ״ג כסלו תר״מ לפ״ק // גם אחיו</text>
<text text-anchor="middle" x="952" y="-511.5" style="font-family:Times New Roman;font-size:10.00px;">יהודה יעלה‏‎ ‎‏תנצב״ה‏‎"</text>
</g>
<!-- A4&#45;&gt;&quot;‎‏הנאהבים והנעימים בחייהם ובמותם לא נפרדו‏‎ \n ‎‏עוברי בעמק הבכא ראו‏‎ ‎‏פה //\nופה‏‎ ‎‏אמלל פרח לא צץ ציץ // יפה נוף\nהדר הורו‏‎ ‎‏ידיד אבות ענף יפה // וחדות\nאמו דרך כל‏‎ ‎‏זנח עולמו רך בשנים //\nהארץ הלך אחר אחיו‏‎ ‎‏ה״ה אליעזר בן כ׳\nיוסף // ולמחרתו יום ג׳ כ״ד כסלו‏‎ \n‎‏הכהן נקטף בעודו // בא המות שנית בחלוני‏‎ \n ‎‏באבו לדאבון אבותיו // אבותיו המדכאים ויאמר‏‎ \n ‎‏ביום ב׳ כ״ג כסלו תר״מ לפ״ק // גם אחיו\nיהודה יעלה‏‎ ‎‏תנצב״ה‏‎&quot; -->
<g id="edge4" class="edge">
            <title>A4-&gt;"‎‏הנאהבים והנעימים בחייהם ובמותם לא נפרדו‏‎ \n ‎‏עוברי בעמק הבכא ראו‏‎ ‎‏פה //\nופה‏‎ ‎‏אמלל פרח לא צץ ציץ // יפה נוף\nהדר הורו‏‎ ‎‏ידיד אבות ענף יפה // וחדות\nאמו דרך כל‏‎ ‎‏זנח עולמו רך בשנים //\nהארץ הלך אחר אחיו‏‎ ‎‏ה״ה אליעזר בן כ׳\nיוסף // ולמחרתו יום ג׳ כ״ד כסלו‏‎ \n‎‏הכהן נקטף בעודו // בא המות שנית בחלוני‏‎ \n ‎‏באבו לדאבון אבותיו // אבותיו המדכאים ויאמר‏‎ \n ‎‏ביום ב׳ כ״ג כסלו תר״מ לפ״ק // גם אחיו\nיהודה יעלה‏‎ ‎‏תנצב״ה‏‎"</title>
<path style="fill:none;stroke:blue;" d="M624,-482C679,-498 766,-525 836,-545"/>
<polygon style="fill:blue;stroke:blue;" points="835.416,-548.479 846,-548 837.427,-541.774 835.416,-548.479"/>
<text text-anchor="middle" x="775" y="-544.5" style="font-family:Times New Roman;font-size:10.00px;">crm:P3_has_note</text>
</g>
<!-- A5 -->
<g id="node8" class="node">
            <title>A5</title>
<polygon style="fill:none;stroke:black;" points="1024,-482 880,-482 880,-448 1024,-448 1024,-482"/>
<text text-anchor="middle" x="952" y="-469" style="font-family:Times New Roman;font-size:10.00px;">crm:E33_Linguistic_Object:</text>
<text text-anchor="middle" x="952" y="-456" style="font-family:Times New Roman;font-size:10.00px;"> </text>
</g>
<!-- A4&#45;&gt;A5 -->
<g id="edge6" class="edge">
            <title>A4-&gt;A5</title>
<path style="fill:none;stroke:blue;" d="M624,-465C689,-465 796,-465 870,-465"/>
<polygon style="fill:blue;stroke:blue;" points="870,-468.5 880,-465 870,-461.5 870,-468.5"/>
<text text-anchor="middle" x="775" y="-468.5" style="font-family:Times New Roman;font-size:10.00px;">crm:P73_has_translation</text>
</g>
<!-- &quot;Die Geliebten und Wohlgefälligen, in ihrem Leben\nund in ihrem Tode waren sie nicht getrennt \n Die ihr durchs Jammertal zieht, sehet, \n hier // und hier welkt die Blume,\ntreibt keine Blüten, // schön von Angesicht, die\nPracht seiner Eltern Liebling seiner\nAhnen, ein schöner Zweig, // und Freude seiner\nMutter, den Weg alles er verwarf seine\nWelt zart an Jahren, // Irdischen folgte er seinem\nBruder, es ist Elieser, Sohn des\ngeehrten Josef // und am folgenden Tag, Tag 3, 24.\nKislev Hakohen, er wurde gepflückt noch\n// stieg der Tod erneut in die Fenster \nin seiner Blüte zum Kummer seiner Eltern // seiner\nerschütterten Eltern, und sagte: am Tag\n2, 23. Kislev 640 der kleinen Zählung. // Auch\nsein Bruder Jehuda wird emporsteigen! \nIhre Seelen seien eingebunden in das Bündel des\nLebens&quot; -->
<g id="node13" class="node">
            <title>"Die Geliebten und Wohlgefälligen, in ihrem Leben\nund in ihrem Tode waren sie nicht getrennt \n Die ihr durchs Jammertal zieht, sehet, \n hier // und hier welkt die Blume,\ntreibt keine Blüten, // schön von Angesicht, die\nPracht seiner Eltern Liebling seiner\nAhnen, ein schöner Zweig, // und Freude seiner\nMutter, den Weg alles er verwarf seine\nWelt zart an Jahren, // Irdischen folgte er seinem\nBruder, es ist Elieser, Sohn des\ngeehrten Josef // und am folgenden Tag, Tag 3, 24.\nKislev Hakohen, er wurde gepflückt noch\n// stieg der Tod erneut in die Fenster \nin seiner Blüte zum Kummer seiner Eltern // seiner\nerschütterten Eltern, und sagte: am Tag\n2, 23. Kislev 640 der kleinen Zählung. // Auch\nsein Bruder Jehuda wird emporsteigen! \nIhre Seelen seien eingebunden in das Bündel des\nLebens"</title>
<text text-anchor="middle" x="1326" y="-649.5" style="font-family:Times New Roman;font-size:10.00px;">"Die Geliebten und Wohlgefälligen, in ihrem Leben</text>
<text text-anchor="middle" x="1326" y="-636.5" style="font-family:Times New Roman;font-size:10.00px;">und in ihrem Tode waren sie nicht getrennt </text>
<text text-anchor="middle" x="1326" y="-623.5" style="font-family:Times New Roman;font-size:10.00px;"> Die ihr durchs Jammertal zieht, sehet, </text>
<text text-anchor="middle" x="1326" y="-610.5" style="font-family:Times New Roman;font-size:10.00px;"> hier // und hier welkt die Blume,</text>
<text text-anchor="middle" x="1326" y="-597.5" style="font-family:Times New Roman;font-size:10.00px;">treibt keine Blüten, // schön von Angesicht, die</text>
<text text-anchor="middle" x="1326" y="-584.5" style="font-family:Times New Roman;font-size:10.00px;">Pracht seiner Eltern Liebling seiner</text>
<text text-anchor="middle" x="1326" y="-571.5" style="font-family:Times New Roman;font-size:10.00px;">Ahnen, ein schöner Zweig, // und Freude seiner</text>
<text text-anchor="middle" x="1326" y="-558.5" style="font-family:Times New Roman;font-size:10.00px;">Mutter, den Weg alles er verwarf seine</text>
<text text-anchor="middle" x="1326" y="-545.5" style="font-family:Times New Roman;font-size:10.00px;">Welt zart an Jahren, // Irdischen folgte er seinem</text>
<text text-anchor="middle" x="1326" y="-532.5" style="font-family:Times New Roman;font-size:10.00px;">Bruder, es ist Elieser, Sohn des</text>
<text text-anchor="middle" x="1326" y="-519.5" style="font-family:Times New Roman;font-size:10.00px;">geehrten Josef // und am folgenden Tag, Tag 3, 24.</text>
<text text-anchor="middle" x="1326" y="-506.5" style="font-family:Times New Roman;font-size:10.00px;">Kislev Hakohen, er wurde gepflückt noch</text>
<text text-anchor="middle" x="1326" y="-493.5" style="font-family:Times New Roman;font-size:10.00px;">// stieg der Tod erneut in die Fenster </text>
<text text-anchor="middle" x="1326" y="-480.5" style="font-family:Times New Roman;font-size:10.00px;">in seiner Blüte zum Kummer seiner Eltern // seiner</text>
<text text-anchor="middle" x="1326" y="-467.5" style="font-family:Times New Roman;font-size:10.00px;">erschütterten Eltern, und sagte: am Tag</text>
<text text-anchor="middle" x="1326" y="-454.5" style="font-family:Times New Roman;font-size:10.00px;">2, 23. Kislev 640 der kleinen Zählung. // Auch</text>
<text text-anchor="middle" x="1326" y="-441.5" style="font-family:Times New Roman;font-size:10.00px;">sein Bruder Jehuda wird emporsteigen! </text>
<text text-anchor="middle" x="1326" y="-428.5" style="font-family:Times New Roman;font-size:10.00px;">Ihre Seelen seien eingebunden in das Bündel des</text>
<text text-anchor="middle" x="1326" y="-415.5" style="font-family:Times New Roman;font-size:10.00px;">Lebens"</text>
</g>
<!-- A5&#45;&gt;&quot;Die Geliebten und Wohlgefälligen, in ihrem Leben\nund in ihrem Tode waren sie nicht getrennt \n Die ihr durchs Jammertal zieht, sehet, \n hier // und hier welkt die Blume,\ntreibt keine Blüten, // schön von Angesicht, die\nPracht seiner Eltern Liebling seiner\nAhnen, ein schöner Zweig, // und Freude seiner\nMutter, den Weg alles er verwarf seine\nWelt zart an Jahren, // Irdischen folgte er seinem\nBruder, es ist Elieser, Sohn des\ngeehrten Josef // und am folgenden Tag, Tag 3, 24.\nKislev Hakohen, er wurde gepflückt noch\n// stieg der Tod erneut in die Fenster \nin seiner Blüte zum Kummer seiner Eltern // seiner\nerschütterten Eltern, und sagte: am Tag\n2, 23. Kislev 640 der kleinen Zählung. // Auch\nsein Bruder Jehuda wird emporsteigen! \nIhre Seelen seien eingebunden in das Bündel des\nLebens&quot; -->
<g id="edge10" class="edge">
            <title>A5-&gt;"Die Geliebten und Wohlgefälligen, in ihrem Leben\nund in ihrem Tode waren sie nicht getrennt \n Die ihr durchs Jammertal zieht, sehet, \n hier // und hier welkt die Blume,\ntreibt keine Blüten, // schön von Angesicht, die\nPracht seiner Eltern Liebling seiner\nAhnen, ein schöner Zweig, // und Freude seiner\nMutter, den Weg alles er verwarf seine\nWelt zart an Jahren, // Irdischen folgte er seinem\nBruder, es ist Elieser, Sohn des\ngeehrten Josef // und am folgenden Tag, Tag 3, 24.\nKislev Hakohen, er wurde gepflückt noch\n// stieg der Tod erneut in die Fenster \nin seiner Blüte zum Kummer seiner Eltern // seiner\nerschütterten Eltern, und sagte: am Tag\n2, 23. Kislev 640 der kleinen Zählung. // Auch\nsein Bruder Jehuda wird emporsteigen! \nIhre Seelen seien eingebunden in das Bündel des\nLebens"</title>
<path style="fill:none;stroke:blue;" d="M1024,-478C1070,-486 1132,-499 1188,-509"/>
<polygon style="fill:blue;stroke:blue;" points="1187.51,-512.471 1198,-511 1188.88,-505.607 1187.51,-512.471"/>
<text text-anchor="middle" x="1128" y="-510.5" style="font-family:Times New Roman;font-size:10.00px;">crm:P3_has_note</text>
</g>
<!-- A10 -->
<g id="node9" class="node">
            <title>A10</title>
<polygon style="fill:none;stroke:black;" points="994,-229 910,-229 910,-195 994,-195 994,-229"/>
<text text-anchor="middle" x="952" y="-216" style="font-family:Times New Roman;font-size:10.00px;">crm:E55_Type:</text>
<text text-anchor="middle" x="952" y="-203" style="font-family:Times New Roman;font-size:10.00px;"> </text>
</g>
<!-- &quot;Mann&quot; -->
<g id="node11" class="node">
            <title>"Mann"</title>
<text text-anchor="middle" x="1326" y="-232.5" style="font-family:Times New Roman;font-size:10.00px;">"Mann"</text>
</g>
<!-- A10&#45;&gt;&quot;Mann&quot; -->
<g id="edge8" class="edge">
            <title>A10-&gt;"Mann"</title>
<path style="fill:none;stroke:blue;" d="M995,-213C1042,-215 1120,-218 1187,-223 1222,-226 1261,-229 1289,-231"/>
<polygon style="fill:blue;stroke:blue;" points="1288.7,-234.488 1299,-232 1289.4,-227.522 1288.7,-234.488"/>
<text text-anchor="middle" x="1128" y="-226.5" style="font-family:Times New Roman;font-size:10.00px;">crm:P3_has_note</text>
</g>
<!-- A1 -->
<g id="node14" class="node">
            <title>A1</title>
<polygon style="fill:none;stroke:black;" points="998,-397 906,-397 906,-363 998,-363 998,-397"/>
<text text-anchor="middle" x="952" y="-384" style="font-family:Times New Roman;font-size:10.00px;">crm:E69_Death:</text>
<text text-anchor="middle" x="952" y="-371" style="font-family:Times New Roman;font-size:10.00px;"> </text>
</g>
<!-- A2 -->
<g id="node16" class="node">
            <title>A2</title>
<polygon style="fill:none;stroke:black;" points="1369,-386 1283,-386 1283,-352 1369,-352 1369,-386"/>
<text text-anchor="middle" x="1326" y="-373" style="font-family:Times New Roman;font-size:10.00px;">crm:E50_Date:</text>
<text text-anchor="middle" x="1326" y="-360" style="font-family:Times New Roman;font-size:10.00px;"> </text>
</g>
<!-- A1&#45;&gt;A2 -->
<g id="edge12" class="edge">
            <title>A1-&gt;A2</title>
<path style="fill:none;stroke:blue;" d="M999,-379C1069,-377 1198,-373 1272,-370"/>
<polygon style="fill:blue;stroke:blue;" points="1272,-373.5 1282,-370 1272,-366.5 1272,-373.5"/>
<text text-anchor="middle" x="1128" y="-378.5" style="font-family:Times New Roman;font-size:10.00px;">crm:P78_is_identified_by</text>
</g>
<!-- A2&#45;&gt;&quot;1879&#45;12&#45;08&quot; -->
<g id="edge50" class="edge">
            <title>A2-&gt;"1879-12-08"</title>
<path style="fill:none;stroke:blue;" d="M1370,-373C1395,-377 1428,-384 1454,-397 1553,-446 1646,-542 1687,-588"/>
<polygon style="fill:blue;stroke:blue;" points="1684.78,-590.779 1694,-596 1690.05,-586.169 1684.78,-590.779"/>
<text text-anchor="middle" x="1507" y="-457.5" style="font-family:Times New Roman;font-size:10.00px;">crm:P3_has_note</text>
</g>
<!-- A0 -->
<g id="node17" class="node">
            <title>A0</title>
<polygon style="fill:none;stroke:black;" points="1026,-341 878,-341 878,-307 1026,-307 1026,-341"/>
<text text-anchor="middle" x="952" y="-328" style="font-family:Times New Roman;font-size:10.00px;">crm:E82_Actor_Appellation:</text>
<text text-anchor="middle" x="952" y="-315" style="font-family:Times New Roman;font-size:10.00px;"> </text>
</g>
<!-- &quot;Elieser ben Josef Hakohen&quot; -->
<g id="node19" class="node">
            <title>"Elieser ben Josef Hakohen"</title>
<text text-anchor="middle" x="1326" y="-309.5" style="font-family:Times New Roman;font-size:10.00px;">"Elieser ben Josef Hakohen"</text>
</g>
<!-- A0&#45;&gt;&quot;Elieser ben Josef Hakohen&quot; -->
<g id="edge14" class="edge">
            <title>A0-&gt;"Elieser ben Josef Hakohen"</title>
<path style="fill:none;stroke:blue;" d="M1026,-322C1089,-320 1177,-316 1242,-314"/>
<polygon style="fill:blue;stroke:blue;" points="1242,-317.5 1252,-314 1242,-310.5 1242,-317.5"/>
<text text-anchor="middle" x="1128" y="-322.5" style="font-family:Times New Roman;font-size:10.00px;">crm:P3_has_note</text>
</g>
<!-- A11 -->
<g id="node20" class="node">
            <title>A11</title>
<polygon style="fill:none;stroke:black;" points="1026,-173 878,-173 878,-139 1026,-139 1026,-173"/>
<text text-anchor="middle" x="952" y="-160" style="font-family:Times New Roman;font-size:10.00px;">crm:E82_Actor_Appellation:</text>
<text text-anchor="middle" x="952" y="-147" style="font-family:Times New Roman;font-size:10.00px;"> </text>
</g>
<!-- &quot;Jehuda&quot; -->
<g id="node22" class="node">
            <title>"Jehuda"</title>
<text text-anchor="middle" x="1326" y="-154.5" style="font-family:Times New Roman;font-size:10.00px;">"Jehuda"</text>
</g>
<!-- A11&#45;&gt;&quot;Jehuda&quot; -->
<g id="edge16" class="edge">
            <title>A11-&gt;"Jehuda"</title>
<path style="fill:none;stroke:blue;" d="M1026,-156C1104,-156 1226,-157 1288,-157"/>
<polygon style="fill:blue;stroke:blue;" points="1288,-160.5 1298,-157 1288,-153.5 1288,-160.5"/>
<text text-anchor="middle" x="1128" y="-159.5" style="font-family:Times New Roman;font-size:10.00px;">crm:P3_has_note</text>
</g>
<!-- A12 -->
<g id="node23" class="node">
            <title>A12</title>
<polygon style="fill:none;stroke:black;" points="1369,-117 1283,-117 1283,-83 1369,-83 1369,-117"/>
<text text-anchor="middle" x="1326" y="-104" style="font-family:Times New Roman;font-size:10.00px;">crm:E50_Date:</text>
<text text-anchor="middle" x="1326" y="-91" style="font-family:Times New Roman;font-size:10.00px;"> </text>
</g>
<!-- &quot;1879&#45;12&#45;09&quot; -->
<g id="node25" class="node">
            <title>"1879-12-09"</title>
<text text-anchor="middle" x="1709" y="-97.5" style="font-family:Times New Roman;font-size:10.00px;">"1879-12-09"^^http://www.w3.org/2001/XMLSchema#date</text>
</g>
<!-- A12&#45;&gt;&quot;1879&#45;12&#45;09&quot; -->
<g id="edge18" class="edge">
            <title>A12-&gt;"1879-12-09"</title>
<path style="fill:none;stroke:blue;" d="M1370,-100C1414,-100 1485,-100 1550,-100"/>
<polygon style="fill:blue;stroke:blue;" points="1550,-103.5 1560,-100 1550,-96.5001 1550,-103.5"/>
<text text-anchor="middle" x="1507" y="-103.5" style="font-family:Times New Roman;font-size:10.00px;">crm:P3_has_note</text>
</g>
<!-- A3 -->
<g id="node26" class="node">
            <title>A3</title>
<polygon style="fill:none;stroke:black;" points="994,-285 910,-285 910,-251 994,-251 994,-285"/>
<text text-anchor="middle" x="952" y="-272" style="font-family:Times New Roman;font-size:10.00px;">crm:E55_Type:</text>
<text text-anchor="middle" x="952" y="-259" style="font-family:Times New Roman;font-size:10.00px;"> </text>
</g>
<!-- A3&#45;&gt;&quot;Mann&quot; -->
<g id="edge20" class="edge">
            <title>A3-&gt;"Mann"</title>
<path style="fill:none;stroke:blue;" d="M995,-264C1069,-258 1219,-244 1289,-238"/>
<polygon style="fill:blue;stroke:blue;" points="1289.4,-241.478 1299,-237 1288.7,-234.512 1289.4,-241.478"/>
<text text-anchor="middle" x="1128" y="-259.5" style="font-family:Times New Roman;font-size:10.00px;">crm:P3_has_note</text>
</g>
<!-- A7 -->
<g id="node28" class="node">
            <title>A7</title>
<polygon style="fill:none;stroke:black;" points="615,-341 519,-341 519,-307 615,-307 615,-341"/>
<text text-anchor="middle" x="567" y="-328" style="font-family:Times New Roman;font-size:10.00px;">crm:E21_Person:</text>
<text text-anchor="middle" x="567" y="-315" style="font-family:Times New Roman;font-size:10.00px;"> </text>
</g>
<!-- A7&#45;&gt;A1 -->
<g id="edge22" class="edge">
            <title>A7-&gt;A1</title>
<path style="fill:none;stroke:blue;" d="M616,-331C687,-342 819,-360 895,-371"/>
<polygon style="fill:blue;stroke:blue;" points="894.508,-374.471 905,-373 895.881,-367.607 894.508,-374.471"/>
<text text-anchor="middle" x="775" y="-364.5" style="font-family:Times New Roman;font-size:10.00px;">crm:P2_has_type</text>
</g>
<!-- A7&#45;&gt;A0 -->
<g id="edge26" class="edge">
            <title>A7-&gt;A0</title>
<path style="fill:none;stroke:blue;" d="M616,-324C679,-324 791,-324 868,-324"/>
<polygon style="fill:blue;stroke:blue;" points="868,-327.5 878,-324 868,-320.5 868,-327.5"/>
<text text-anchor="middle" x="775" y="-327.5" style="font-family:Times New Roman;font-size:10.00px;">crm:P131_is_identified_by</text>
</g>
<!-- A7&#45;&gt;A3 -->
<g id="edge24" class="edge">
            <title>A7-&gt;A3</title>
<path style="fill:none;stroke:blue;" d="M616,-317C689,-306 824,-287 899,-276"/>
<polygon style="fill:blue;stroke:blue;" points="899.881,-279.393 909,-274 898.508,-272.529 899.881,-279.393"/>
<text text-anchor="middle" x="775" y="-304.5" style="font-family:Times New Roman;font-size:10.00px;">crm:P2_has_type</text>
</g>
<!-- http://www.steinheim&#45;institut.de/cgi&#45;bin/epidat?id=aha&#45;13 -->
<g id="node32" class="node">
            <title>http://www.steinheim-institut.de/cgi-bin/epidat?id=aha-13</title>
<a xlink:href="http://www.steinheim-institut.de/cgi-bin/epidat?id=aha-13" xlink:title="crm:E19_Physical_Object:\nhttp://www.steinheim-institut.de/cgi-bin/epidat?id=aha-13">
<polygon style="fill:none;stroke:black;" points="289,-308 1,-308 1,-274 289,-274 289,-308"/>
<text text-anchor="middle" x="145" y="-295" style="font-family:Times New Roman;font-size:10.00px;fill:blue;">crm:E19_Physical_Object:</text>
<text text-anchor="middle" x="145" y="-282" style="font-family:Times New Roman;font-size:10.00px;fill:blue;">http://www.steinheim-institut.de/cgi-bin/epidat?id=aha-13</text>
</a>
</g>
<!-- http://www.steinheim&#45;institut.de/cgi&#45;bin/epidat?id=aha&#45;13&#45;&gt;A8 -->
<g id="edge34" class="edge">
            <title>http://www.steinheim-institut.de/cgi-bin/epidat?id=aha-13-&gt;A8</title>
<path style="fill:none;stroke:blue;" d="M165,-308C194,-333 251,-379 301,-415 443,-513 631,-594 722,-630"/>
<polygon style="fill:blue;stroke:blue;" points="720.44,-633.137 731,-634 723.283,-626.74 720.44,-633.137"/>
<text text-anchor="middle" x="360" y="-487.5" style="font-family:Times New Roman;font-size:10.00px;">crm:P78_is_identified_by</text>
</g>
<!-- http://www.steinheim&#45;institut.de/cgi&#45;bin/epidat?id=aha&#45;13&#45;&gt;A4 -->
<g id="edge38" class="edge">
            <title>http://www.steinheim-institut.de/cgi-bin/epidat?id=aha-13-&gt;A4</title>
<path style="fill:none;stroke:blue;" d="M186,-308C264,-340 432,-410 517,-444"/>
<polygon style="fill:blue;stroke:blue;" points="515.44,-447.137 526,-448 518.283,-440.74 515.44,-447.137"/>
<text text-anchor="middle" x="360" y="-400.5" style="font-family:Times New Roman;font-size:10.00px;">crm:P56_bears_feature</text>
</g>
<!-- http://www.steinheim&#45;institut.de/cgi&#45;bin/epidat?id=aha&#45;13&#45;&gt;A7 -->
<g id="edge32" class="edge">
            <title>http://www.steinheim-institut.de/cgi-bin/epidat?id=aha-13-&gt;A7</title>
<path style="fill:none;stroke:blue;" d="M290,-302C364,-309 452,-315 508,-319"/>
<polygon style="fill:blue;stroke:blue;" points="507.701,-322.488 518,-320 508.398,-315.522 507.701,-322.488"/>
<text text-anchor="middle" x="360" y="-314.5" style="font-family:Times New Roman;font-size:10.00px;">crm:P131i_identifies</text>
</g>
<!-- &quot;Breite, hochrechteckige Sandsteinstele mit geradem\nAbschluss. Das ver [...]&quot; -->
<g id="node34" class="node">
            <title>"Breite, hochrechteckige Sandsteinstele mit geradem\nAbschluss. Das ver [...]"</title>
<text text-anchor="middle" x="567" y="-271" style="font-family:Times New Roman;font-size:10.00px;">"Breite, hochrechteckige Sandsteinstele mit geradem</text>
<text text-anchor="middle" x="567" y="-258" style="font-family:Times New Roman;font-size:10.00px;">Abschluss. Das ver [...]"</text>
</g>
<!-- http://www.steinheim&#45;institut.de/cgi&#45;bin/epidat?id=aha&#45;13&#45;&gt;&quot;Breite, hochrechteckige Sandsteinstele mit geradem\nAbschluss. Das ver [...]&quot; -->
<g id="edge28" class="edge">
            <title>http://www.steinheim-institut.de/cgi-bin/epidat?id=aha-13-&gt;"Breite, hochrechteckige Sandsteinstele mit geradem\nAbschluss. Das ver [...]"</title>
<path style="fill:none;stroke:blue;" d="M290,-277C293,-276 297,-276 301,-276 340,-273 381,-271 420,-270"/>
<polygon style="fill:blue;stroke:blue;" points="420,-273.5 430,-270 420,-266.5 420,-273.5"/>
<text text-anchor="middle" x="360" y="-279.5" style="font-family:Times New Roman;font-size:10.00px;">crm:P3_has_note</text>
</g>
<!-- A6 -->
<g id="node36" class="node">
            <title>A6</title>
<polygon style="fill:none;stroke:black;" points="615,-201 519,-201 519,-167 615,-167 615,-201"/>
<text text-anchor="middle" x="567" y="-188" style="font-family:Times New Roman;font-size:10.00px;">crm:E21_Person:</text>
<text text-anchor="middle" x="567" y="-175" style="font-family:Times New Roman;font-size:10.00px;"> </text>
</g>
<!-- http://www.steinheim&#45;institut.de/cgi&#45;bin/epidat?id=aha&#45;13&#45;&gt;A6 -->
<g id="edge30" class="edge">
            <title>http://www.steinheim-institut.de/cgi-bin/epidat?id=aha-13-&gt;A6</title>
<path style="fill:none;stroke:blue;" d="M210,-274C238,-267 271,-258 301,-251 372,-232 454,-212 508,-198"/>
<polygon style="fill:blue;stroke:blue;" points="508.881,-201.393 518,-196 507.508,-194.529 508.881,-201.393"/>
<text text-anchor="middle" x="360" y="-254.5" style="font-family:Times New Roman;font-size:10.00px;">crm:P131i_identifies</text>
</g>
<!-- A9 -->
<g id="node40" class="node">
            <title>A9</title>
<polygon style="fill:none;stroke:black;" points="618,-115 516,-115 516,-81 618,-81 618,-115"/>
<text text-anchor="middle" x="567" y="-102" style="font-family:Times New Roman;font-size:10.00px;">crm:E57_Material:</text>
<text text-anchor="middle" x="567" y="-89" style="font-family:Times New Roman;font-size:10.00px;"> </text>
</g>
<!-- http://www.steinheim&#45;institut.de/cgi&#45;bin/epidat?id=aha&#45;13&#45;&gt;A9 -->
<g id="edge36" class="edge">
            <title>http://www.steinheim-institut.de/cgi-bin/epidat?id=aha-13-&gt;A9</title>
<path style="fill:none;stroke:blue;" d="M173,-274C204,-256 255,-226 301,-204 371,-170 455,-139 509,-119"/>
<polygon style="fill:blue;stroke:blue;" points="511.015,-121.964 519,-115 508.415,-115.464 511.015,-121.964"/>
<text text-anchor="middle" x="360" y="-207.5" style="font-family:Times New Roman;font-size:10.00px;">crm:P9_consists_of</text>
</g>
<!-- A6&#45;&gt;A10 -->
<g id="edge44" class="edge">
            <title>A6-&gt;A10</title>
<path style="fill:none;stroke:blue;" d="M616,-188C689,-193 824,-203 899,-208"/>
<polygon style="fill:blue;stroke:blue;" points="898.701,-211.488 909,-209 899.398,-204.522 898.701,-211.488"/>
<text text-anchor="middle" x="775" y="-205.5" style="font-family:Times New Roman;font-size:10.00px;">crm:P2_has_type</text>
</g>
<!-- A6&#45;&gt;A11 -->
<g id="edge46" class="edge">
            <title>A6-&gt;A11</title>
<path style="fill:none;stroke:blue;" d="M616,-180C679,-176 791,-168 868,-162"/>
<polygon style="fill:blue;stroke:blue;" points="868.398,-165.478 878,-161 867.701,-158.512 868.398,-165.478"/>
<text text-anchor="middle" x="775" y="-175.5" style="font-family:Times New Roman;font-size:10.00px;">crm:P131_is_identified_by</text>
</g>
<!-- A13 -->
<g id="node42" class="node">
            <title>A13</title>
<polygon style="fill:none;stroke:black;" points="998,-117 906,-117 906,-83 998,-83 998,-117"/>
<text text-anchor="middle" x="952" y="-104" style="font-family:Times New Roman;font-size:10.00px;">crm:E69_Death:</text>
<text text-anchor="middle" x="952" y="-91" style="font-family:Times New Roman;font-size:10.00px;"> </text>
</g>
<!-- A6&#45;&gt;A13 -->
<g id="edge42" class="edge">
            <title>A6-&gt;A13</title>
<path style="fill:none;stroke:blue;" d="M616,-170C644,-162 682,-153 715,-145 777,-131 847,-118 895,-110"/>
<polygon style="fill:blue;stroke:blue;" points="895.881,-113.393 905,-108 894.508,-106.529 895.881,-113.393"/>
<text text-anchor="middle" x="775" y="-148.5" style="font-family:Times New Roman;font-size:10.00px;">crm:P2_has_type</text>
</g>
<!-- &quot;Stein&quot; -->
<g id="node48" class="node">
            <title>"Stein"</title>
<text text-anchor="middle" x="952" y="-40.5" style="font-family:Times New Roman;font-size:10.00px;">"Stein"</text>
</g>
<!-- A9&#45;&gt;&quot;Stein&quot; -->
<g id="edge48" class="edge">
            <title>A9-&gt;"Stein"</title>
<path style="fill:none;stroke:blue;" d="M618,-85C647,-78 683,-69 715,-64 786,-53 868,-48 915,-45"/>
<polygon style="fill:blue;stroke:blue;" points="915.398,-48.4778 925,-44 914.701,-41.5125 915.398,-48.4778"/>
<text text-anchor="middle" x="775" y="-68.5" style="font-family:Times New Roman;font-size:10.00px;">crm:P3_has_note</text>
</g>
<!-- A13&#45;&gt;A12 -->
<g id="edge40" class="edge">
            <title>A13-&gt;A12</title>
<path style="fill:none;stroke:blue;" d="M999,-100C1069,-100 1198,-100 1272,-100"/>
<polygon style="fill:blue;stroke:blue;" points="1272,-103.5 1282,-100 1272,-96.5001 1272,-103.5"/>
<text text-anchor="middle" x="1128" y="-103.5" style="font-family:Times New Roman;font-size:10.00px;">crm:P78_is_identified_by</text>
</g>
</g>
</svg>