<svg xmlns:xlink="http://www.w3.org/1999/xlink" xmlns="http://www.w3.org/2000/svg" width="846pt" height="126pt" viewBox="0.00 0.00 846.00 126.00">
<g id="graph0" class="graph" transform="scale(1 1) rotate(0) translate(4 122)">
<title>d1e49</title>
<polygon style="fill:white;stroke:white;" points="-4,4 -4,-122 842,-122 842,4 -4,4"/>
<!-- http://www.steinheim&#45;institut.de/cgi&#45;bin/epidat?id=aha&#45;13 -->
<g id="node1" class="node">
            <title>http://www.steinheim-institut.de/cgi-bin/epidat?id=aha-13</title>
<a xlink:href="http://www.steinheim-institut.de/cgi-bin/epidat?id=aha-13" xlink:title="crm:E19_Physical_Object:\nhttp://www.steinheim-institut.de/cgi-bin/epidat?id=aha-13">
<polygon style="fill:none;stroke:black;" points="289,-93 1,-93 1,-59 289,-59 289,-93"/>
<text text-anchor="middle" x="145" y="-80" style="font-family:Times New Roman;font-size:10.00px;fill:blue;">crm:E19_Physical_Object:</text>
<text text-anchor="middle" x="145" y="-67" style="font-family:Times New Roman;font-size:10.00px;fill:blue;">http://www.steinheim-institut.de/cgi-bin/epidat?id=aha-13</text>
</a>
</g>
<!-- &quot;Breite, hochrechteckige Sandsteinstele mit geradem\nAbschluss. Das ver [...]&quot; -->
<g id="node3" class="node">
            <title>"Breite, hochrechteckige Sandsteinstele mit geradem\nAbschluss. Das ver [...]"</title>
<text text-anchor="middle" x="541" y="-104" style="font-family:Times New Roman;font-size:10.00px;">"Breite, hochrechteckige Sandsteinstele mit geradem</text>
<text text-anchor="middle" x="541" y="-91" style="font-family:Times New Roman;font-size:10.00px;">Abschluss. Das ver [...]"</text>
</g>
<!-- http://www.steinheim&#45;institut.de/cgi&#45;bin/epidat?id=aha&#45;13&#45;&gt;&quot;Breite, hochrechteckige Sandsteinstele mit geradem\nAbschluss. Das ver [...]&quot; -->
<g id="edge2" class="edge">
            <title>http://www.steinheim-institut.de/cgi-bin/epidat?id=aha-13-&gt;"Breite, hochrechteckige Sandsteinstele mit geradem\nAbschluss. Das ver [...]"</title>
<path style="fill:none;stroke:blue;" d="M290,-85C324,-87 360,-89 394,-91"/>
<polygon style="fill:blue;stroke:blue;" points="393.701,-94.4875 404,-92 394.398,-87.5222 393.701,-94.4875"/>
<text text-anchor="middle" x="347" y="-92.5" style="font-family:Times New Roman;font-size:10.00px;">crm:P3_has_note</text>
</g>
<!-- A0 -->
<g id="node5" class="node">
            <title>A0</title>
<polygon style="fill:none;stroke:black;" points="592,-60 490,-60 490,-26 592,-26 592,-60"/>
<text text-anchor="middle" x="541" y="-47" style="font-family:Times New Roman;font-size:10.00px;">crm:E57_Material:</text>
<text text-anchor="middle" x="541" y="-34" style="font-family:Times New Roman;font-size:10.00px;"> </text>
</g>
<!-- http://www.steinheim&#45;institut.de/cgi&#45;bin/epidat?id=aha&#45;13&#45;&gt;A0 -->
<g id="edge4" class="edge">
            <title>http://www.steinheim-institut.de/cgi-bin/epidat?id=aha-13-&gt;A0</title>
<path style="fill:none;stroke:blue;" d="M290,-64C355,-58 430,-53 480,-48"/>
<polygon style="fill:blue;stroke:blue;" points="480.398,-51.4778 490,-47 479.701,-44.5125 480.398,-51.4778"/>
<text text-anchor="middle" x="347" y="-64.5" style="font-family:Times New Roman;font-size:10.00px;">crm:P9_consists_of</text>
</g>
<!-- &quot;Stein&quot; -->
<g id="node7" class="node">
            <title>"Stein"</title>
<text text-anchor="middle" x="811" y="-40.5" style="font-family:Times New Roman;font-size:10.00px;">"Stein"</text>
</g>
<!-- A0&#45;&gt;&quot;Stein&quot; -->
<g id="edge6" class="edge">
            <title>A0-&gt;"Stein"</title>
<path style="fill:none;stroke:blue;" d="M592,-43C645,-43 727,-43 774,-43"/>
<polygon style="fill:blue;stroke:blue;" points="774,-46.5001 784,-43 774,-39.5001 774,-46.5001"/>
<text text-anchor="middle" x="731" y="-46.5" style="font-family:Times New Roman;font-size:10.00px;">crm:P3_has_note</text>
</g>
</g>
</svg>